<?xml version="1.0" encoding="UTF-8"?><svg id="a" xmlns="http://www.w3.org/2000/svg" viewBox="0 0 1080 1080"><path d="M540,540C540,243.8,296.29.05.09,0L0,540v540c296.24,0,540-243.76,540-540Z" style="fill:#6eba77;"/><path d="M1079.33,540C1079.33,243.8,835.62.05,539.42,0l-.09,540v540c296.24,0,540-243.76,540-540Z" style="fill:#88c37c;"/><rect x="609.3" y="243.85" width="91.63" height="458.16" rx="19.61" ry="19.61" transform="translate(-142.53 601.76) rotate(-45)" style="fill:#5e3319;"/><rect x="285.27" y="682.33" width="91.63" height="229.08" rx="19.61" ry="19.61" transform="translate(-466.5 467.51) rotate(-45)" style="fill:#5e3319;"/><path d="M724.92,652.07l-266.78,167.13c-1.77-2.94-4.12-5.88-6.67-8.43l-134.17-134.17c-2.75-2.75-5.49-4.9-8.63-6.87l167.13-266.58,249.12,248.93Z" style="fill:#5e3319;"/><path d="M575.26,869.72c-16.46,0-31.93-6.4-43.58-18.04l-70.58-70.59c-6.17-6.17-6.17-16.17,0-22.34s16.17-6.17,22.34,0l70.58,70.59c11.37,11.36,31.12,11.36,42.45,0l91.51-91.51c11.71-11.71,11.71-30.76,0-42.46l-34.77-34.75c-6.17-6.17-6.17-16.17,0-22.34,6.17-6.15,16.17-6.19,22.34,0l34.77,34.75c24.03,24.03,24.03,63.12,0,87.15l-91.51,91.51c-11.62,11.64-27.11,18.04-43.57,18.04h0Z" style="fill:#5e3319;"/><path d="M752.4,391.48c-4.05,0-8.09-1.54-11.17-4.63-6.17-6.17-6.17-16.17,0-22.34l32.4-32.4c6.17-6.17,16.17-6.17,22.34,0,6.17,6.17,6.17,16.17,0,22.34l-32.4,32.4c-3.09,3.09-7.12,4.63-11.17,4.63Z" style="fill:#5e3319;"/><path d="M684.81,348.6c-1.77,0-3.58-.29-5.35-.93-8.21-2.96-12.47-12.01-9.53-20.22l15.51-43.1c2.96-8.21,11.93-12.53,20.22-9.53,8.21,2.96,12.47,12.01,9.53,20.22l-15.51,43.1c-2.32,6.44-8.39,10.45-14.87,10.45Z" style="fill:#5e3319;"/><path d="M795.27,459.06c-6.48,0-12.55-4.01-14.87-10.45-2.94-8.21,1.32-17.26,9.53-20.22l43.1-15.51c8.21-2.98,17.26,1.32,20.22,9.53,2.94,8.21-1.32,17.26-9.53,20.22l-43.1,15.51c-1.77.64-3.58.93-5.35.93Z" style="fill:#5e3319;"/></svg>