<?xml version="1.0" encoding="UTF-8"?><svg id="a" xmlns="http://www.w3.org/2000/svg" viewBox="0 0 1080 1080"><path d="M539.33,540c0,296.2,243.71,539.95,539.91,540l.09-540V0c-296.24,0-540,243.76-540,540Z" style="fill:#6eba77;"/><path d="M0,540c0,296.2,243.71,539.95,539.91,540l.09-540V0C243.76,0,0,243.76,0,540Z" style="fill:#88c37c;"/><rect x="376.23" y="354.14" width="334.98" height="426.9" rx="167.49" ry="167.49" style="fill:#b0d393;"/><path d="M541.23,659.7c-27.57,0-50.13-22.56-50.13-50.13h22.56c0,15.04,12.53,27.57,27.57,27.57v22.56Z" style="fill:#5e3319;"/><path d="M541.23,311.29c-112.8,0-225.59,25.07-225.59,75.2v152.9c0,140.37,87.73,265.7,220.58,313.32h7.52c132.85-47.63,220.58-172.95,220.58-313.32v-152.9c2.51-50.13-110.29-75.2-223.09-75.2ZM541.23,709.84c-55.14,0-97.76-42.61-97.76-97.76,0-12.53,2.51-25.07,7.52-35.09v-2.51c2.51-2.51,2.51-7.52,5.01-10.03l75.2-150.4c0-2.51,5.01-5.01,10.03-5.01,2.51,0,7.52,2.51,10.03,5.01l75.2,150.4c2.51,2.51,5.01,7.52,5.01,10.03,5.01,12.53,7.52,25.07,7.52,37.6,0,55.14-42.61,97.76-97.76,97.76Z" style="fill:#5e3319;"/></svg>