<?xml version="1.0" encoding="UTF-8"?>
<svg id="Capa_2" data-name="Capa 2" xmlns="http://www.w3.org/2000/svg" viewBox="0 0 476.69 113.58">
  <defs>
    <style>
      .cls-1 {
        fill: #5e3119;
      }
    </style>
  </defs>
  <g id="Portada_YT" data-name="Portada YT">
    <g>
      <path class="cls-1" d="M30.62,113.58c-7.12,0-12.75-.79-16.89-2.36-4.14-1.58-7.21-3.85-9.19-6.83-1.99-2.97-3.24-6.68-3.76-11.11-.52-4.43-.79-9.45-.79-15.05h19.42v3.32l-.17,3.15v2.8c0,2.92.53,4.9,1.58,5.95s3.85,1.58,8.4,1.58h2.98c2.92-.23,5.04-.5,6.39-.79,1.34-.29,2.19-.99,2.54-2.1.35-1.11.53-2.95.53-5.51v-1.92l.17-2.28v-2.45l.17-4.55c0-.81-.03-2.04-.09-3.67-.06-1.63-.32-3.61-.79-5.95-.47-1.05-1.78-1.72-3.94-2.01-2.16-.29-4.11-.44-5.86-.44h-.7c-7.12,0-12.75-.76-16.89-2.28-4.14-1.51-7.21-3.73-9.19-6.65-1.99-2.91-3.24-6.5-3.76-10.76-.52-4.26-.79-9.19-.79-14.79C0,18.49,2.28,11.11,6.83,6.74S19.31.17,30.62.17s19.39,2.31,23.89,6.91c4.49,4.61,6.74,12.16,6.74,22.66h-19.6c0-3.73-.18-6.39-.53-7.96-.35-1.58-1.31-2.51-2.89-2.8-1.58-.29-4.11-.44-7.61-.44s-6.04.18-7.61.53-2.57,1.25-2.98,2.71c-.41,1.46-.61,3.82-.61,7.09v2.8l-.17,4.03c0,.58.03,1.55.09,2.89.06,1.34.38,2.83.96,4.46.12.35,1.08.73,2.89,1.14,1.81.41,4.29.61,7.44.61,7.7,0,13.65.91,17.85,2.71,4.2,1.81,7.2,4.32,9.01,7.53,1.81,3.21,2.89,7,3.24,11.38.35,4.38.53,9.19.53,14.44v3.85c0,10.5-2.25,17.94-6.74,22.31-4.49,4.38-12.46,6.56-23.89,6.56Z"/>
      <path class="cls-1" d="M100.97,113.58c-11.32,0-19.25-2.19-23.8-6.56s-6.83-11.81-6.83-22.31V.17h19.6l.53,84.53v.88c0,.94.03,1.99.09,3.15.06,1.17.26,2.16.61,2.97h-.17c.58.94,1.86,1.69,3.85,2.28,1.98.58,4.14.88,6.47.88,2.45,0,4.75-.38,6.91-1.14,2.16-.76,3.35-1.78,3.59-3.06L112.17.17h19.42v78.93c0,5.6-.29,10.56-.88,14.88-.58,4.32-1.84,7.9-3.76,10.76-1.92,2.86-4.96,5.05-9.1,6.56-4.14,1.52-9.77,2.28-16.89,2.28Z"/>
      <path class="cls-1" d="M171.15,113.58c-7.12,0-12.75-.79-16.89-2.36-4.14-1.58-7.21-3.85-9.19-6.83-1.99-2.97-3.24-6.68-3.76-11.11-.52-4.43-.79-9.45-.79-15.05h19.42v3.32l-.17,3.15v2.8c0,2.92.53,4.9,1.58,5.95s3.85,1.58,8.4,1.58h2.98c2.92-.23,5.04-.5,6.39-.79,1.34-.29,2.19-.99,2.54-2.1.35-1.11.53-2.95.53-5.51v-1.92l.17-2.28v-2.45l.17-4.55c0-.81-.03-2.04-.09-3.67-.06-1.63-.32-3.61-.79-5.95-.47-1.05-1.78-1.72-3.94-2.01-2.16-.29-4.11-.44-5.86-.44h-.7c-7.12,0-12.75-.76-16.89-2.28-4.14-1.51-7.21-3.73-9.19-6.65-1.99-2.91-3.24-6.5-3.76-10.76-.52-4.26-.79-9.19-.79-14.79,0-10.38,2.28-17.76,6.83-22.14S159.83.17,171.15.17s19.39,2.31,23.89,6.91c4.49,4.61,6.74,12.16,6.74,22.66h-19.6c0-3.73-.18-6.39-.53-7.96-.35-1.58-1.31-2.51-2.89-2.8-1.58-.29-4.11-.44-7.61-.44s-6.04.18-7.61.53-2.57,1.25-2.98,2.71c-.41,1.46-.61,3.82-.61,7.09v2.8l-.17,4.03c0,.58.03,1.55.09,2.89.06,1.34.38,2.83.96,4.46.12.35,1.08.73,2.89,1.14,1.81.41,4.29.61,7.44.61,7.7,0,13.65.91,17.85,2.71,4.2,1.81,7.2,4.32,9.01,7.53,1.81,3.21,2.89,7,3.24,11.38.35,4.38.53,9.19.53,14.44v3.85c0,10.5-2.25,17.94-6.74,22.31-4.49,4.38-12.46,6.56-23.89,6.56Z"/>
      <path class="cls-1" d="M210.7,65.1v-14.18h37.62v14.18h-37.62Z"/>
      <path class="cls-1" d="M287.69,113.58c-7.12,0-12.75-.79-16.89-2.36-4.14-1.58-7.21-3.85-9.19-6.83-1.99-2.97-3.24-6.68-3.76-11.11-.52-4.43-.79-9.45-.79-15.05h19.42v3.32l-.17,3.15v2.8c0,2.92.53,4.9,1.58,5.95s3.85,1.58,8.4,1.58h2.98c2.92-.23,5.04-.5,6.39-.79,1.34-.29,2.19-.99,2.54-2.1.35-1.11.53-2.95.53-5.51v-1.92l.17-2.28v-2.45l.17-4.55c0-.81-.03-2.04-.09-3.67-.06-1.63-.32-3.61-.79-5.95-.47-1.05-1.78-1.72-3.94-2.01-2.16-.29-4.11-.44-5.86-.44h-.7c-7.12,0-12.75-.76-16.89-2.28-4.14-1.51-7.21-3.73-9.19-6.65-1.99-2.91-3.24-6.5-3.76-10.76-.52-4.26-.79-9.19-.79-14.79,0-10.38,2.28-17.76,6.83-22.14S276.38.17,287.69.17s19.39,2.31,23.89,6.91c4.49,4.61,6.74,12.16,6.74,22.66h-19.6c0-3.73-.18-6.39-.53-7.96-.35-1.58-1.31-2.51-2.89-2.8-1.58-.29-4.11-.44-7.61-.44s-6.04.18-7.61.53-2.57,1.25-2.98,2.71c-.41,1.46-.61,3.82-.61,7.09v2.8l-.17,4.03c0,.58.03,1.55.09,2.89.06,1.34.38,2.83.96,4.46.12.35,1.08.73,2.89,1.14,1.81.41,4.29.61,7.44.61,7.7,0,13.65.91,17.85,2.71,4.2,1.81,7.2,4.32,9.01,7.53,1.81,3.21,2.89,7,3.24,11.38.35,4.38.53,9.19.53,14.44v3.85c0,10.5-2.25,17.94-6.74,22.31-4.49,4.38-12.46,6.56-23.89,6.56Z"/>
      <path class="cls-1" d="M357.87,113.58c-11.32,0-19.22-2.25-23.71-6.74-4.49-4.49-6.74-11.87-6.74-22.14V28.88c0-10.38,2.25-17.79,6.74-22.22,4.49-4.43,12.4-6.65,23.71-6.65s19.1,2.19,23.71,6.56c4.61,4.38,6.91,11.81,6.91,22.31v50.23c0,5.6-.29,10.56-.88,14.88-.58,4.32-1.9,7.93-3.94,10.85-2.04,2.92-5.11,5.11-9.19,6.56-4.08,1.46-9.62,2.19-16.62,2.19ZM358.22,94.67c5.13,0,8.2-1.25,9.19-3.76.99-2.51,1.49-6.45,1.49-11.81V28.88c0-3.38-.21-5.8-.61-7.26-.41-1.46-1.37-2.33-2.89-2.62-1.52-.29-4.02-.44-7.52-.44s-6.04.26-7.61.79c-1.58.52-2.57,1.52-2.98,2.97-.41,1.46-.61,3.65-.61,6.56l.35,51.1c0,3.97.23,7,.7,9.1.46,2.1,1.51,3.56,3.15,4.38,1.63.82,4.08,1.22,7.35,1.22Z"/>
      <path class="cls-1" d="M398.29,113.58V.35h19.77v113.22h-19.77Z"/>
      <path class="cls-1" d="M428.56,113.58V0h19.78v95.03h28.35v18.55h-48.12Z"/>
    </g>
  </g>
</svg>