<?xml version="1.0" encoding="UTF-8"?>
<svg id="Capa_2" data-name="Capa 2" xmlns="http://www.w3.org/2000/svg" xmlns:xlink="http://www.w3.org/1999/xlink" viewBox="0 0 943.71 1426.23">
  <defs>
    <style>
      .cls-1 {
        fill: none;
      }

      .cls-2 {
        fill: #b0d291;
      }

      .cls-3 {
        fill: #6eba77;
      }

      .cls-4 {
        fill: #5e3119;
      }

      .cls-5 {
        fill: #fff;
      }

      .cls-6 {
        clip-path: url(#clippath);
      }

      .cls-7 {
        fill: #87c27b;
      }
    </style>
    <clipPath id="clippath">
      <rect class="cls-1" width="943.71" height="1007.29"/>
    </clipPath>
  </defs>
  <g id="TRABAJO_ANIMAR" data-name="TRABAJO / ANIMAR">
    <g>
      <path class="cls-4" d="M449.33,1426.23c231.37,0,418.94-187.56,418.94-418.94H30.39c0,231.37,187.56,418.94,418.94,418.94Z"/>
      <g class="cls-6">
        <g>
          <ellipse class="cls-2" cx="769.38" cy="1039.25" rx="99.01" ry="621.07"/>
          <ellipse class="cls-7" cx="638.33" cy="846.84" rx="134.69" ry="663.75"/>
          <ellipse class="cls-2" cx="129.32" cy="1033.1" rx="99.01" ry="621.07"/>
          <ellipse class="cls-7" cx="260.56" cy="840.69" rx="134.69" ry="663.75"/>
          <ellipse class="cls-3" cx="449.4" cy="819.09" rx="164.9" ry="812.61"/>
        </g>
      </g>
      <g>
        <path class="cls-5" d="M498.04,868.38c10.51-22.6,35.47-34.72,59.83-29.45l.38.08c10.02,2.15,20.02,3.64,29.95,4.43,1.97.16,3.96.3,5.93.42,3.96.2,7.9.32,11.81.32,13.14,0,26.09-1.21,38.72-3.62,3.16-.6,6.3-1.27,9.43-2.03,17.68-4.28,34.68-10.96,50.69-20.02,58.19-32.97,89.82-91.16,84.2-154.11-15.79-8.25-33.77-13.74-52.08-17.68-10.02-2.15-20.02-3.64-29.95-4.43-1.97-.16-3.94-.3-5.91-.42-3.96-.22-7.89-.32-11.83-.32-13.12,0-26.07,1.21-38.7,3.62-3.16.6-6.3,1.27-9.43,2.03-17.68,4.28-34.68,10.96-50.69,20.02-44.79,25.4-73.86,65.72-82.29,111.65-4.04,22.02-11.82,43.24-23.48,62.35-8.49,13.91-15.84,28.54-21.88,43.75-.38-2.03-.76-4.04-1.15-6.05-5.36-27.36-12.99-54.43-23.08-80.52-11.41-29.51-20.05-59.99-26.24-91.01-.27-1.36-.55-2.65-.83-3.86-13.76-59.46-45.92-109.17-92.99-142.48-2.17-1.53-4.35-3.02-6.54-4.45-3.3-2.15-6.62-4.2-9.98-6.14-4.47-2.59-9.01-4.99-13.58-7.2-2.29-1.09-4.57-2.17-6.88-3.16-16.15-7.08-32.77-11.79-49.5-14.16-3.58-.5-7.16-.89-10.76-1.19-4.79-.38-9.58-.58-14.38-.58-7.78,0-15.53.52-23.23,1.53-1.93.26-3.84.54-5.75.85-21.1,3.52-41.7,10.9-61.05,22.19-.88,20.48,2.21,41.9,7.08,62.9,10.74,46.45,32.71,86.94,64.27,118.32,1.25,1.25,2.53,2.51,3.82,3.74,2.59,2.45,5.23,4.83,7.95,7.18,5.41,4.65,11.06,9.09,16.94,13.24,11.16,7.89,22.75,14.54,34.6,19.91,1.61.74,3.2,1.43,4.81,2.11,11.91,5.01,24.06,8.77,36.33,11.26,3.58.72,7.16,1.33,10.74,1.85,8.35,1.17,16.74,1.77,25.12,1.77,9.7,0,19.41-.8,28.99-2.39,1.91-.32,3.82-.68,5.73-1.05,6.15-1.23,12.25-2.8,18.28-4.7,15.96-5.03,32.93,4.02,38.22,19.9,11.12,33.39,18.08,68.28,21.33,103.45,4.71,51.01-20.76,100.24-65,126.05-.24.14-.49.28-.73.43-32.16,18.41-66.88,33.69-101.75,46.95-2.16.78-4.97,1.76-7.89,2.76-14.8,5.09-31.25,3.53-44.45-4.89-.09-.05-.17-.11-.25-.16-8.23-5.29-14.62-13.34-15.23-23.25l-8.49.34c.32,18.69,14.17,31.34,30.25,38.89,2.29,1.07,2.68,4.2.65,5.7-15.53,11.42-46.46,19.12-82.76,76.47l7.18,5.03c9.76-13.2,20.79-25.42,32.95-36.25,3.2-2.85,8.26-.73,8.61,3.54.87,10.89.07,21.83,1.16,33.03l9.43-1.09c-.46-8.39.42-17.86.38-26.59v-.23c0-29.31,8.38-30.51,22.46-37.81,9.54-4.94,19.51-9.09,29.88-12.34,1.65-.51,3.34-1.01,5.06-1.52,1.95-.58,3.59,1.58,2.48,3.29-3,4.62-5.87,9.33-8.62,14.12-15.05,26.25-25.83,55.5-28.88,85.73-.49,4.84-3.46,8.95-7.77,11.21-6.79,3.55-12.37,9.76-14.89,18.4l4.73,2.25c1.59-1.97,3.16-3.82,4.83-5.51,1.64-1.64,3.33-3.07,5.08-4.3,2.99-2.1,7.1.06,7.28,3.71.67,13.92,3.14,27.75,7.29,41.01l7.62-2.27c-3.95-13.76-6.01-28.06-6.09-42.33-.02-3.21,2.99-5.51,6.09-4.71,5.37,1.39,10.52,4.63,14.99,9.81l3.92-2.49c-3.96-8.39-10.59-13.59-17.97-15.82-3.75-1.13-6.18-4.78-5.68-8.66.29-2.23.62-4.45.99-6.66,9.35-55.66,47.35-102.24,99.23-124.48,31.61-13.55,70.7-31.85,93.06-48,2.77-2,6.61.15,6.39,3.56l-.03.41c-1.14,17.87-6.89,35.05-16.17,50.36-.68,1.13-1.35,2.26-2.01,3.4-13.56,24.1-21.22,51.48-27.54,77.71-2.62,11.43-6.18,22.62-10.56,33.49-6.95,17.24-29.31,22.64-42.65,9.7-.45-.44-.89-.89-1.32-1.35l-6.38,5.27c1.61,2.03,3.22,3.68,5.01,5.31,7.53,7.15,17.44,10.74,27.22,10.35,1.75-.07,2.87,1.89,1.99,3.39-5.39,9.17-11.37,18-17.88,26.42l9.7,7.87c23.6-27.8,41.88-60.63,51.78-95.89,5.51-18.49,11.3-37.22,19.61-54.47,1.36-2.82,5.54-2.17,5.93.93,2.96,23.49,10.6,82.16,13.81,113.24,5.05,46.77-5.77,91.97-3.82,139.62l10.7-.06c1.03-30.66,7.8-61.01,11.81-92.57.6-4.7,1.12-9.43,1.54-14.19.26-2.91,3.96-3.98,5.72-1.64,8.39,11.1,16.7,18.94,22.17,23.55l6.82-8.11c-.4-.34-.81-.69-1.24-1.06-20.11-17.45-32.3-42.29-34.38-68.83-1.75-22.36-3.98-53.14-4.39-71.45-.73-30.24,4.65-58.06,9.11-87.07,1.29-8.37,11-12.45,17.82-7.42,8.01,5.91,16.22,11.49,24.55,16.8,12,7.56,24.21,14.63,36.73,21.09,9.29,4.8,13.98,15.33,11.57,25.5-6.05,25.55-9.23,51.8-6.56,78.08v.02c1.14,8.84-1.05,17.86-6.42,24.97-3.33,4.42-6.38,9.73-6.72,14.71l5.09,1.19c1.13-2.27,2.29-4.39,3.56-6.4.97-1.51,2-2.91,3.09-4.19,2.6-3.06,7.57-2,8.72,1.85l.02.08c2.09,7.1,7.76,21.52,12.93,31.1l6.05-2.92c-5.11-11.27-9.13-23.94-11.1-32.55l-.02-.07c-.93-4.1,2.37-8.08,6.56-7.66,5.06.5,10.24,2.56,15.23,6.3l3.3-3.26c-6.61-8.6-15.86-12.16-24.81-11.69-1.96.1-3.67-1.27-3.94-3.21-.42-3.1-.74-6.2-.95-9.26-1.06-26.21,4.12-52.48,12.05-77.61,1.78-5.63,7.96-8.56,13.48-6.46l.1.04c13.52,5.13,27.58,8.07,40.86,12.89,12.36,4.48,24.11,10.27,35.19,17.14,10.84,6.72,16.82,19.1,15.19,31.75l-.03.21c-.99,8.35-4.04,16.49-10.06,22.35l5.55,6.42c4.12-3.46,7.44-7.76,9.86-12.41,2.93-5.81,4.73-11.97,5.69-18.27.63-4.1,5.61-5.84,8.61-2.98,9.9,9.45,18.97,19.84,27.16,30.93l7.2-5.03c-14.49-22.2-32.85-42.51-54.16-58.87-2.08-1.59-1.63-4.85.79-5.86l.06-.02c16.56-6.66,33.33-20.84,33.29-40.21l-8.49-.36c-.28,3.6-1.17,7.08-2.9,10.22-2.73,5.09-6.69,9.16-11.34,12.4-13.42,9.37-30.93,10.56-45.97,4.11-16.73-7.17-41.47-17.79-49.73-21.36-20.79-9.39-49.73-29.58-74.22-48.05-34.55-26.06-51.53-69.72-42.7-112.09.33-1.57.68-3.08,1.05-4.5,4.04-14.61,9.33-28.83,15.71-42.56ZM600.19,684.51c27.02-15.31,56.97-23.09,89.01-23.09,14.28,0,28.91,1.59,43.51,4.73,14.3,3.08,26.53,6.76,37.01,11.16.56,50.99-26.81,96.7-74.75,123.89-27.02,15.31-56.97,23.09-89.03,23.09-14.28,0-28.91-1.59-43.51-4.73-11.04-2.37-20.8-5.11-29.49-8.25,25.95-33.47,58.76-61.82,95.37-82.66,14.08-8.13,28.91-15.15,44.28-20.66l-1.05-3.9c-16.47,3.38-32.27,9.03-47.71,15.63-36.21,15.93-69.28,38.96-96.94,67.23,6.2-42.18,32.17-79.12,73.3-102.43ZM328.48,771.12c-34.76,0-69.38-11.49-100.1-33.23-42.91-30.39-72.36-75.59-85.11-130.75-4.04-17.38-6.22-32.71-6.64-46.51,22.09-11.02,45.66-16.58,70.22-16.58,34.78,0,69.4,11.49,100.12,33.23,42.89,30.37,72.32,75.57,85.11,130.75.34,1.45.66,2.88.95,4.3-6.22-8.85-12.79-17.38-19.79-25.65-22.95-27.14-50.11-50.57-80.12-69.08l-3.8,5.83c28.4,19.67,53.47,43.79,74.15,71.09,13.54,17.9,25.2,36.93,35.1,56.85v.04s0,.02,0,.03c.07,1.88-.97,3.64-2.67,4.44-21.21,10.02-44.27,15.26-67.43,15.26Z"/>
        <path class="cls-3" d="M769.72,677.32c.56,50.99-26.81,96.7-74.75,123.89-27.02,15.31-56.97,23.09-89.03,23.09-14.28,0-28.91-1.59-43.51-4.73-11.04-2.37-20.8-5.11-29.49-8.25,25.95-33.47,58.76-61.82,95.37-82.66,14.08-8.13,28.91-15.15,44.28-20.66l-1.05-3.9c-16.47,3.38-32.27,9.03-47.71,15.63-36.21,15.93-69.28,38.96-96.94,67.23,6.2-42.18,32.17-79.12,73.3-102.43,27.02-15.31,56.97-23.09,89.01-23.09,14.28,0,28.91,1.59,43.51,4.73,14.3,3.08,26.53,6.76,37.01,11.16Z"/>
        <g>
          <path class="cls-3" d="M311.91,556.59c-3.3-2.15-6.62-4.2-9.98-6.14,3.36,1.93,6.68,4,9.98,6.14Z"/>
          <path class="cls-3" d="M398.57,751.42c.07,1.88-.97,3.64-2.67,4.44-21.21,10.02-44.27,15.26-67.43,15.26-34.76,0-69.38-11.49-100.1-33.23-42.91-30.39-72.36-75.59-85.11-130.75-4.04-17.38-6.22-32.71-6.64-46.51,22.09-11.02,45.66-16.58,70.22-16.58,34.78,0,69.4,11.49,100.12,33.23,42.89,30.37,72.32,75.57,85.11,130.75.34,1.45.66,2.88.95,4.3-6.22-8.85-12.79-17.38-19.79-25.65-22.95-27.14-50.11-50.57-80.12-69.08l-3.8,5.83c28.4,19.67,53.47,43.79,74.15,71.09,13.54,17.9,25.2,36.93,35.1,56.85v.04s0,.02,0,.03Z"/>
        </g>
      </g>
    </g>
  </g>
</svg>